<svg width="519" height="409" viewBox="0 0 519 409" fill="none" xmlns="http://www.w3.org/2000/svg">
<path d="M0 8.51141H311.247V155.829H0V8.51141Z" fill="#E6E6E6"/>
<path d="M8.8998 21.1442H302.347V144.056H8.8998V21.1442Z" fill="white"/>
<path d="M0.132675 0H311.38V13.1892H0.132675V0Z" fill="#1178B2"/>
<path d="M301.554 10.2001C300.2 10.2001 299.103 9.10564 299.103 7.75554C299.103 6.40545 300.2 5.31097 301.554 5.31097C302.907 5.31097 304.005 6.40545 304.005 7.75554C304.005 9.10564 302.907 10.2001 301.554 10.2001Z" fill="white"/>
<path d="M292.251 10.2001C290.898 10.2001 289.801 9.10564 289.801 7.75554C289.801 6.40545 290.898 5.31097 292.251 5.31097C293.605 5.31097 294.702 6.40545 294.702 7.75554C294.702 9.10564 293.605 10.2001 292.251 10.2001Z" fill="white"/>
<path d="M282.949 10.2001C281.595 10.2001 280.498 9.10564 280.498 7.75554C280.498 6.40545 281.595 5.31097 282.949 5.31097C284.302 5.31097 285.399 6.40545 285.399 7.75554C285.399 9.10564 284.302 10.2001 282.949 10.2001Z" fill="white"/>
<path d="M77.9837 41.0332H126.772V124.169H77.9837V41.0332Z" fill="#F2F2F2"/>
<path d="M134.855 41.0317H233.263V63.9157H134.855V41.0317Z" fill="#1178B2"/>
<path d="M134.855 70.2885H233.263V94.9104H134.855V70.2885Z" fill="#F2F2F2"/>
<path d="M134.855 101.283H233.263V124.167H134.855V101.283Z" fill="#F2F2F2"/>
<path d="M370.504 245.815C370.495 244.129 370.842 242.461 371.524 240.919C372.206 239.377 373.207 237.996 374.461 236.867C375.716 235.738 377.195 234.886 378.803 234.366C380.41 233.847 382.109 233.672 383.789 233.854C384.321 233.914 384.847 234.011 385.365 234.144L425.955 199.439L423.53 186.399L443.536 179.931L449.568 200.83C450.282 203.339 450.165 206.009 449.237 208.447C448.308 210.884 446.616 212.957 444.412 214.359L394.479 245.861C394.479 246.253 394.459 246.644 394.418 247.034C394.236 248.71 393.7 250.328 392.847 251.783C391.994 253.238 390.843 254.497 389.468 255.477C388.093 256.457 386.526 257.136 384.87 257.47C383.213 257.804 381.505 257.785 379.857 257.414C379.377 257.308 378.905 257.172 378.443 257.007C376.132 256.174 374.133 254.654 372.713 252.653C371.294 250.652 370.523 248.266 370.504 245.815Z" fill="#9F616A"/>
<path d="M471.416 286.063H419.082C419.082 287.564 365.146 288.782 365.146 288.782C364.299 289.417 363.527 290.147 362.846 290.956C360.797 293.393 359.677 296.474 359.684 299.655V301.829C359.685 305.434 361.121 308.89 363.676 311.438C366.231 313.987 369.696 315.419 373.31 315.421H471.416C475.029 315.418 478.493 313.985 481.048 311.436C483.602 308.888 485.039 305.433 485.042 301.829V299.655C485.037 296.052 483.6 292.598 481.046 290.05C478.491 287.502 475.029 286.068 471.416 286.063Z" fill="#3F3D56"/>
<path d="M414.489 314.881H428.66V406.215H414.489V314.881Z" fill="#3F3D56"/>
<path d="M374.156 407.351C374.156 409.061 395.63 408.012 422.119 408.012C448.609 408.012 470.082 409.061 470.082 407.351C470.082 405.641 448.609 392.08 422.119 392.08C395.63 392.08 374.156 405.641 374.156 407.351Z" fill="#3F3D56"/>
<path d="M386.948 395.014L373.585 395.012L367.227 360.439L386.951 360.44L386.948 395.014Z" fill="#9F616A"/>
<path d="M390.357 407.934L347.266 407.933V407.389C347.266 405.192 347.7 403.017 348.543 400.987C349.386 398.957 350.621 397.113 352.178 395.56C353.736 394.006 355.585 392.774 357.62 391.933C359.654 391.092 361.835 390.66 364.038 390.66H364.04L390.358 390.661L390.357 407.934Z" fill="#2F2E41"/>
<path d="M366.961 373.574L340.318 313.981C338.094 308.958 337.848 303.284 339.63 298.088C341.411 292.893 345.089 288.557 349.931 285.945L407.72 255.036L434.09 252.798L458.415 250.593L458.59 250.889C458.814 251.267 464.044 260.278 460.509 270.158C457.827 277.653 450.852 283.506 439.777 287.557C413.927 297.012 384.064 305.092 372.426 308.127C371.911 308.258 371.43 308.497 371.015 308.826C370.6 309.156 370.259 309.57 370.015 310.04C369.771 310.505 369.626 311.016 369.589 311.54C369.552 312.063 369.624 312.589 369.801 313.084L394.553 368.552C394.811 369.256 394.904 370.009 394.825 370.754C394.745 371.499 394.495 372.216 394.094 372.85C393.693 373.483 393.151 374.016 392.511 374.408C391.87 374.799 391.148 375.039 390.4 375.108L371.906 376.451C371.749 376.466 371.592 376.474 371.437 376.474C370.49 376.473 369.563 376.199 368.768 375.685C367.974 375.17 367.346 374.437 366.961 373.574Z" fill="#CBCBCB"/>
<path d="M395.669 395.014L382.306 395.012L375.948 360.439L395.671 360.44L395.669 395.014Z" fill="#9F616A"/>
<path d="M399.078 407.934L355.987 407.933V407.389C355.987 405.192 356.42 403.017 357.263 400.987C358.106 398.957 359.342 397.113 360.899 395.56C362.456 394.006 364.305 392.774 366.34 391.933C368.375 391.092 370.556 390.66 372.758 390.66H372.76L399.079 390.661L399.078 407.934Z" fill="#2F2E41"/>
<path d="M376.771 376.836L350.129 317.243C347.905 312.22 347.659 306.546 349.44 301.35C351.222 296.155 354.9 291.819 359.742 289.207L417.53 258.298L443.901 256.06L462.953 254.412L462.95 254.151C463.174 254.529 468.404 263.54 464.869 273.42C462.188 280.915 460.663 286.768 449.588 290.819C423.737 300.274 393.875 308.354 382.236 311.389C381.722 311.52 381.241 311.758 380.826 312.088C380.41 312.418 380.069 312.832 379.826 313.302C379.582 313.767 379.436 314.278 379.4 314.802C379.363 315.325 379.435 315.851 379.612 316.346L404.364 371.814C404.622 372.518 404.715 373.271 404.636 374.016C404.556 374.761 404.306 375.478 403.905 376.111C403.504 376.745 402.962 377.278 402.321 377.67C401.681 378.061 400.959 378.301 400.211 378.37L381.716 379.713C381.559 379.728 381.403 379.736 381.247 379.736C380.3 379.735 379.373 379.461 378.579 378.946C377.785 378.432 377.157 377.699 376.771 376.836Z" fill="#CBCBCB"/>
<path d="M426.98 255.499C425.703 254.598 407.359 264.198 404.089 256.587C419.35 218.531 408.833 202.097 418.182 180.274C419.828 176.51 422.308 173.168 425.436 170.497C428.564 167.827 432.258 165.898 436.241 164.857L460.494 163.635L460.62 163.696C466.093 166.37 470.556 170.732 473.348 176.135C476.14 181.538 477.112 187.695 476.12 193.693C476.034 217.443 461.787 235.558 466.769 252.784C466.977 253.504 467.038 254.259 466.948 255.003C466.857 255.748 466.617 256.466 466.241 257.115C465.877 257.743 465.388 258.29 464.803 258.721C464.219 259.153 463.553 259.461 462.845 259.626L430.82 255.365C430.072 255.542 429.295 255.559 428.54 255.413C427.785 255.267 427.069 254.963 426.442 254.52L426.98 255.499Z" fill="#2F2E41"/>
<path d="M452.4 154.6C437.614 154.6 425.627 142.643 425.627 127.894C425.627 113.145 437.614 101.189 452.4 101.189C467.187 101.189 479.173 113.145 479.173 127.894C479.173 142.643 467.187 154.6 452.4 154.6Z" fill="#9F616A"/>
<path d="M460.928 152.406C459.505 153.027 456.592 141.721 457.897 139.46C459.838 136.097 459.723 136.121 461.011 133.896C462.3 131.671 462.588 128.626 460.92 126.668C459.251 124.71 455.391 124.97 454.63 127.425C455.119 122.762 450.496 119.015 445.917 117.962C441.337 116.908 436.507 117.562 431.902 116.625C426.558 115.537 420.998 111.069 423.13 105.208C423.496 104.232 424.044 103.334 424.744 102.561C427.208 99.7981 430.654 98.6184 434.023 97.4777C441.032 95.1047 448.233 92.7019 455.631 92.9639C467.785 93.3943 479.274 101.775 483.369 113.198C483.879 114.623 484.274 116.087 484.55 117.575C487.089 131.192 479.161 144.625 466.284 149.81L460.928 152.406Z" fill="#2F2E41"/>
<path d="M320.524 195.351L317.454 213.535C317.42 213.738 317.442 213.946 317.519 214.137L341.606 274.169C341.701 274.407 341.875 274.605 342.099 274.73C342.323 274.855 342.583 274.9 342.836 274.857C343.089 274.814 343.32 274.685 343.49 274.493C343.659 274.301 343.758 274.056 343.769 273.801L344.789 249.676C344.796 249.516 344.768 249.356 344.707 249.208L322.67 195.115C322.578 194.89 322.415 194.7 322.205 194.575C321.996 194.451 321.751 194.397 321.508 194.424C321.265 194.451 321.038 194.556 320.86 194.723C320.683 194.89 320.565 195.111 320.524 195.351Z" fill="#3F3D56"/>
<path d="M322.229 196.747L319.312 212.369L340.687 267.15L343.462 249.528L322.229 196.747Z" fill="#1178B2"/>
<path d="M415.75 273.89C415.224 275.938 346.175 278.155 345.459 277.535C344.816 276.741 344.26 275.882 343.798 274.972C343.074 273.683 342.404 272.39 342.404 272.39L343.539 250.608L411.557 243.358C411.557 243.358 414.566 261.535 415.511 269.886C415.725 271.209 415.804 272.551 415.75 273.89Z" fill="#3F3D56"/>
<path opacity="0.1" d="M352.438 252.913L352.432 271.679L382.516 269.545L381.185 250.874L352.438 252.913Z" fill="black"/>
<path opacity="0.1" d="M391.641 256.164L391.459 256.141L392.879 264.119L409.593 262.934L409.023 254.931L391.641 256.164Z" fill="black"/>
<path opacity="0.1" d="M415.75 273.89C415.224 275.938 346.175 278.155 345.459 277.535C344.816 276.741 344.26 275.882 343.798 274.972L415.511 269.886C415.725 271.209 415.804 272.551 415.75 273.89Z" fill="black"/>
<path d="M443.475 241.363L385.23 252.205C385.084 252.569 384.92 252.925 384.737 253.272C383.946 254.757 382.85 256.06 381.521 257.095C380.192 258.13 378.659 258.874 377.023 259.28C375.38 259.692 373.668 259.75 372.001 259.449C370.334 259.147 368.75 258.494 367.357 257.533C364.833 255.805 363.067 253.179 362.422 250.193C361.776 247.208 362.3 244.089 363.886 241.476C365.472 238.864 368 236.955 370.951 236.142C373.902 235.329 377.054 235.672 379.759 237.102C380.231 237.355 380.684 237.639 381.115 237.954L431.706 220.716L434.295 207.706L455.28 209.091L453.106 230.9C452.842 233.445 451.763 235.837 450.028 237.722C448.293 239.607 445.995 240.884 443.475 241.363Z" fill="#9F616A"/>
<path d="M455.991 218.818L425.499 208.822L432.612 188.45C433.556 185.745 435.429 183.46 437.899 181.999C440.369 180.538 443.277 179.995 446.11 180.466C448.975 180.943 451.575 182.425 453.441 184.647C455.306 186.868 456.314 189.681 456.282 192.579L455.991 218.818Z" fill="#2F2E41"/>
<path d="M262.559 409H518.329C518.507 409 518.677 408.929 518.803 408.804C518.929 408.678 519 408.508 519 408.33C519 408.153 518.929 407.983 518.803 407.857C518.677 407.731 518.507 407.661 518.329 407.661H262.559C262.381 407.661 262.21 407.731 262.085 407.857C261.959 407.983 261.888 408.153 261.888 408.33C261.888 408.508 261.959 408.678 262.085 408.804C262.21 408.929 262.381 409 262.559 409Z" fill="#CBCBCB"/>
<path d="M163.066 387.903C150.799 394.236 145.345 408.024 145.345 408.024C145.345 408.024 159.78 411.545 172.047 405.212C184.314 398.879 189.769 385.091 189.769 385.091C189.769 385.091 175.334 381.57 163.066 387.903Z" fill="#F1F1F1"/>
<path d="M166.989 392.465C159.669 404.148 145.45 408.455 145.45 408.455C145.45 408.455 143.099 393.819 150.42 382.135C157.74 370.452 171.959 366.145 171.959 366.145C171.959 366.145 174.31 380.781 166.989 392.465Z" fill="#F1F1F1"/>
<path d="M122.927 408.734H199.456C199.634 408.734 199.805 408.664 199.931 408.538C200.057 408.413 200.127 408.242 200.127 408.065C200.127 407.887 200.057 407.717 199.931 407.591C199.805 407.466 199.634 407.395 199.456 407.395H122.927C122.748 407.395 122.578 407.466 122.452 407.591C122.326 407.717 122.255 407.887 122.255 408.065C122.255 408.242 122.326 408.413 122.452 408.538C122.578 408.664 122.748 408.734 122.927 408.734Z" fill="#CBCBCB"/>
</svg>
