<svg width="375" height="361" viewBox="0 0 375 361" fill="none" xmlns="http://www.w3.org/2000/svg">
<g clip-path="url(#clip0_15_25)">
<path d="M32.8866 345.362C33.2874 345.38 33.6842 345.276 34.0232 345.062C34.3622 344.848 34.627 344.536 34.7818 344.167C34.9365 343.799 34.9738 343.392 34.8885 343.002C34.8032 342.611 34.5994 342.257 34.3048 341.985L34.1707 341.455C34.1884 341.412 34.2061 341.37 34.224 341.327C34.6277 340.378 35.3043 339.568 36.1687 339.001C37.0331 338.433 38.0468 338.132 39.0824 338.136C40.1181 338.139 41.1295 338.448 41.9896 339.022C42.8498 339.596 43.5203 340.411 43.9169 341.363C45.5023 345.165 47.5207 348.972 48.0176 352.991C48.2365 354.768 48.1442 356.569 47.7447 358.314C51.4683 350.228 53.4018 341.439 53.4142 332.544C53.415 330.311 53.2905 328.081 53.0411 325.862C52.835 324.044 52.5491 322.238 52.1834 320.446C50.1877 310.719 45.9028 301.602 39.6806 293.843C36.669 292.208 34.2336 289.692 32.7024 286.636C32.1477 285.537 31.7556 284.364 31.5384 283.154C31.8781 283.198 32.8193 278.047 32.5631 277.731C33.0365 277.016 33.8839 276.661 34.4009 275.963C36.9725 272.492 40.5154 273.098 42.3649 277.815C46.316 279.8 46.3542 283.092 43.9299 286.259C42.3875 288.273 42.1755 290.999 40.8222 293.156C40.9615 293.333 41.1063 293.505 41.2455 293.683C43.7906 296.941 46.0089 300.439 47.8685 304.128C47.4163 299.996 47.9561 295.815 49.4434 291.931C50.9508 288.31 53.7761 285.261 56.2642 282.132C59.2528 278.372 65.3811 280.013 65.9076 284.779C65.9128 284.825 65.9177 284.871 65.9226 284.917C65.553 285.124 65.1913 285.345 64.8373 285.578C64.3927 285.874 64.0481 286.296 63.8488 286.79C63.6495 287.284 63.6048 287.827 63.7204 288.346C63.8361 288.866 64.1068 289.339 64.4971 289.703C64.8873 290.067 65.3789 290.305 65.9074 290.386L65.9615 290.395C65.8299 291.721 65.5972 293.035 65.2654 294.326C68.4573 306.615 61.5663 311.091 51.7267 311.292C51.5095 311.403 51.2979 311.514 51.0807 311.619C52.949 316.89 54.1209 322.381 54.567 327.953C54.8195 331.24 54.8046 334.542 54.5224 337.827L54.5392 337.711C55.2521 334.058 57.2094 330.762 60.0805 328.38C64.3449 324.892 70.3697 323.608 74.9702 320.805C75.4591 320.492 76.0277 320.325 76.6087 320.324C77.1897 320.323 77.759 320.487 78.2494 320.797C78.7399 321.107 79.131 321.55 79.3767 322.074C79.6224 322.599 79.7124 323.182 79.6361 323.755C79.6299 323.796 79.6236 323.837 79.6172 323.878C78.9314 324.156 78.2637 324.476 77.6179 324.837C77.2484 325.044 76.8866 325.265 76.5326 325.498C76.088 325.793 75.7434 326.216 75.5442 326.71C75.3449 327.204 75.3001 327.747 75.4158 328.266C75.5315 328.786 75.8022 329.259 76.1924 329.623C76.5826 329.987 77.0742 330.225 77.6028 330.306L77.6569 330.315C77.6959 330.32 77.7293 330.326 77.7683 330.331C76.5965 333.117 74.9518 335.681 72.9064 337.91C70.9106 348.638 62.3385 349.656 53.1692 346.532H53.1636C52.1575 350.885 50.6998 355.121 48.814 359.173H33.276C33.2202 359.002 33.1702 358.824 33.12 358.652C34.5582 358.742 36.0022 358.657 37.4195 358.397C36.2667 356.989 35.1138 355.569 33.961 354.161C33.9353 354.135 33.9111 354.107 33.8886 354.078C33.3038 353.357 32.7135 352.642 32.1287 351.921L32.1284 351.92C32.0972 349.711 32.3519 347.507 32.8861 345.362L32.8866 345.362Z" fill="#F2F2F2"/>
<path d="M58.7771 207.807C54.6592 192.922 46.9775 180.244 34.5751 170.49C34.0844 169.736 33.313 169.206 32.4302 169.016C31.5473 168.827 30.6252 168.994 29.8659 169.481L1.55759 187.678C0.79948 188.166 0.266972 188.934 0.0768929 189.813C-0.11319 190.692 0.0547066 191.61 0.543697 192.366L24.7457 229.683C25.2364 230.437 26.0078 230.967 26.8907 231.157C27.7735 231.346 28.6957 231.179 29.4549 230.692L57.7632 212.495C58.5213 212.007 59.0538 211.239 59.2439 210.36C59.434 209.481 59.2661 208.563 58.7771 207.807Z" fill="#F2F2F2"/>
<path d="M49.2957 197.932C48.2345 190.067 41.6991 182.027 33.7364 173.941C33.2768 173.234 32.5544 172.738 31.7276 172.561C30.9008 172.383 30.0371 172.54 29.3261 172.996L4.99751 188.634C4.28749 189.092 3.78875 189.811 3.61071 190.634C3.43266 191.457 3.58983 192.317 4.04778 193.025L25.5843 226.232C26.0439 226.939 26.7664 227.435 27.5932 227.612C28.42 227.79 29.2837 227.633 29.9947 227.177L45.0658 217.489C48.2284 215.451 50.4499 212.248 51.2429 208.581C52.0359 204.915 51.3356 201.085 49.2957 197.932Z" fill="white"/>
<path d="M47.1248 230C50.717 214.98 50.1179 200.186 43.9668 185.692C43.9019 184.795 43.4823 183.961 42.8002 183.371C42.118 182.782 41.229 182.487 40.3281 182.549L6.71624 184.924C5.81552 184.988 4.97733 185.406 4.38557 186.085C3.79381 186.764 3.49681 187.649 3.55972 188.546L6.71769 232.854C6.78262 233.751 7.20219 234.585 7.88434 235.174C8.5665 235.763 9.45555 236.059 10.3564 235.997L43.9682 233.622C44.869 233.558 45.7072 233.14 46.299 232.461C46.8907 231.782 47.1877 230.897 47.1248 230Z" fill="#F2F2F2"/>
<path d="M43.5927 216.799C46.4675 209.397 44.6294 199.218 41.5625 188.314C41.5017 187.474 41.1087 186.692 40.4699 186.141C39.831 185.589 38.9984 185.312 38.1547 185.371L9.26815 187.411C8.42456 187.472 7.63954 187.863 7.0853 188.499C6.53107 189.135 6.25289 189.964 6.31178 190.804L9.12193 230.232C9.18276 231.072 9.57576 231.853 10.2146 232.405C10.8535 232.957 11.6862 233.234 12.5299 233.175L30.4245 231.911C34.182 231.641 37.6787 229.899 40.1474 227.066C42.616 224.233 43.8551 220.54 43.5927 216.799Z" fill="white"/>
<path d="M44.2265 137.276L58.6261 84.2163C59.2428 81.9701 60.722 80.0554 62.7442 78.8853C64.7665 77.7152 67.1698 77.3836 69.4355 77.9621C70.6076 78.2613 71.7062 78.7951 72.6643 79.5308C73.6224 80.2665 74.42 81.1888 75.0084 82.2414C75.5968 83.294 75.9637 84.4549 76.0868 85.6533C76.2098 86.8517 76.0865 88.0625 75.7242 89.2119L59.0692 143.872L50.3554 177.51C51.6245 178.475 52.5645 179.805 53.0478 181.32C53.531 182.835 53.534 184.462 53.0564 185.979C52.5788 187.496 51.6437 188.829 50.3782 189.799C49.1127 190.768 47.578 191.326 45.9828 191.397C44.3877 191.468 42.8092 191.048 41.462 190.195C40.1148 189.341 39.0641 188.096 38.4526 186.627C37.8412 185.159 37.6987 183.539 38.0445 181.987C38.3902 180.435 39.2075 179.026 40.3853 177.953L44.2265 137.276Z" fill="#FFB6B6"/>
<path d="M148.075 146.456L133.308 93.4956C132.689 91.25 132.982 88.8522 134.123 86.8196C135.264 84.787 137.162 83.2825 139.408 82.6309C140.569 82.2938 141.788 82.1958 142.989 82.3428C144.19 82.4899 145.348 82.8788 146.393 83.4861C147.438 84.0933 148.348 84.9061 149.067 85.8748C149.787 86.8435 150.3 87.9479 150.577 89.1207L164.222 144.601L173.941 177.965C175.526 178.152 177.016 178.82 178.207 179.878C179.399 180.937 180.234 182.335 180.599 183.882C180.964 185.43 180.842 187.052 180.25 188.528C179.657 190.004 178.622 191.262 177.286 192.133C175.95 193.003 174.377 193.442 172.781 193.391C171.185 193.341 169.643 192.802 168.365 191.848C167.088 190.895 166.136 189.573 165.639 188.062C165.142 186.552 165.124 184.925 165.588 183.404L148.075 146.456Z" fill="#FFB6B6"/>
<path d="M63.5703 349.89L72.9804 349.889L77.4565 313.756L63.5689 313.757L63.5703 349.89Z" fill="#FFB6B6"/>
<path d="M63.2392 359.663L92.1754 359.662V359.297C92.1752 356.324 90.9886 353.472 88.8764 351.369C86.7643 349.266 83.8996 348.085 80.9126 348.085H80.912L75.6264 344.093L65.7647 348.086L63.2387 348.086L63.2392 359.663Z" fill="#2F2E41"/>
<path d="M129.789 349.984L139.053 348.339L137.089 311.984L123.417 314.412L129.789 349.984Z" fill="#FFB6B6"/>
<path d="M131.186 359.663L159.673 354.605L159.609 354.247C159.084 351.319 157.413 348.719 154.963 347.018C152.513 345.317 149.485 344.655 146.544 345.176L146.543 345.176L140.636 342.17L131.631 347.824L129.145 348.266L131.186 359.663Z" fill="#2F2E41"/>
<path d="M128.872 183.754C128.872 183.754 137.642 196.12 137.284 200.27C136.927 204.419 133.83 201.109 136.927 204.419C140.024 207.73 141.828 205.509 140.307 209.599C138.785 213.689 138.166 211.04 138.785 213.689C139.404 216.337 138.166 317.638 138.166 317.638H122.039C122.039 317.638 112.945 258.899 114.096 256.157C115.247 253.415 115.221 254.608 113.995 251.694C112.77 248.78 111.616 245.313 111.616 245.313L98.8696 209.599L89.037 259.884L77.4631 319.637H62.0092C62.0092 319.637 59.3629 231.769 58.1929 230.674C57.0229 229.579 58.4226 227.119 59.8907 225.7C61.3587 224.282 61.0661 222.842 60.593 219.921C60.1199 216.999 58.1241 215.37 58.1929 213.536C58.2617 211.702 53.9258 182.57 60.7393 177.935C67.5528 173.301 128.872 183.754 128.872 183.754Z" fill="#2F2E41"/>
<path d="M74.9512 60.5768L92.99 55.9232L101.41 44.3613L121.408 46.8087L125.664 62.5793L139.901 70.8062C114.381 70.9581 128.124 144.563 124.373 149.312C121.321 153.176 139.608 162.37 133.877 168.235C128.145 174.099 130.264 171.753 131.594 178.138C132.924 184.523 142.619 191.28 131.594 191.213C120.569 191.146 54.0429 190.2 55.9436 182.63C57.8443 175.061 57.8145 176.983 60.6806 172.238C63.5467 167.492 65.4756 170.144 64.5111 163.141C63.5466 156.138 66.6792 150.722 64.497 147.623C61.1475 142.866 64.523 108.53 67.6814 109.447L74.9512 60.5768Z" fill="#1178B2"/>
<path d="M80.1016 60.8223C80.1016 60.8223 66.9064 55.2415 62.1545 65.6491C60.6368 68.9733 59.3588 77.3228 58.1274 75.4712C56.8961 73.6197 58.0842 77.6788 57.3219 77.6838C56.6416 77.6883 55.5955 76.5927 56.3861 80.367C56.6338 81.6051 56.5625 82.8855 56.1789 84.0887C55.7953 85.2919 55.1118 86.3789 54.1923 87.2481L77.1261 100.922L80.1016 60.8223Z" fill="#1178B2"/>
<path d="M129.679 70.2838C129.679 70.2838 142.874 64.703 147.626 75.1106C148.962 78.0377 148.63 84.5415 151.232 83.8113C153.835 83.0812 151.987 85.8323 152.331 86.7881C152.713 87.8533 151.042 90.8679 153.389 89.813C155.735 88.7581 155.588 96.7096 155.588 96.7096L132.654 110.384L129.679 70.2838Z" fill="#1178B2"/>
<path d="M123.423 54.6966L127.224 61.3197C127.224 61.3197 137.678 66.9966 137.678 67.9427C137.678 68.8889 135.777 76.6146 137.678 82.6863C139.579 88.7581 134.05 100.177 132.926 109.573C128.174 149.312 142.305 163.751 145.281 189.05L115.124 197.819C115.124 197.819 110.117 131.335 110.117 116.196C110.117 101.058 123.423 54.6966 123.423 54.6966Z" fill="#2F2E41"/>
<path d="M95.8616 51.8582L88.0926 56.2573C88.0926 56.2573 77.9257 58.489 77.8043 59.4274C77.683 60.3658 77.6469 70.3392 74.9826 76.1195C72.3184 81.8999 73.0525 84.9735 65.8773 102.061C62.2113 110.792 53.7949 180.645 53.7949 180.645L82.5805 193.177C82.5805 193.177 96.076 127.874 98.0184 112.86C99.9607 97.8456 95.8616 51.8582 95.8616 51.8582Z" fill="#2F2E41"/>
<path d="M115.287 42.8375C104.434 42.8375 95.6363 34.0785 95.6363 23.2738C95.6363 12.4691 104.434 3.71014 115.287 3.71014C126.14 3.71014 134.938 12.4691 134.938 23.2738C134.938 34.0785 126.14 42.8375 115.287 42.8375Z" fill="#FFB6B6"/>
<path d="M102.355 38.474C107 34.8592 100.65 18.9576 108.321 22.3518C108.321 22.3518 117.697 16.412 119.58 20.3153C121.762 24.8349 129.519 22.7845 134.283 21.1893C133.909 20.3227 133.642 19.4136 133.49 18.4824C134.37 19.1723 135.302 19.7936 136.278 20.3407C136.932 19.9926 137.511 19.5198 137.982 18.9491C138.447 18.4192 138.738 17.7604 138.816 17.0611C138.893 16.3618 138.754 15.6556 138.417 15.0374C137.624 13.824 135.988 13.4506 135.025 12.3729C134.913 12.2214 134.841 12.0452 134.813 11.8596C134.785 11.6739 134.803 11.4843 134.865 11.307C134.98 10.8734 134.997 10.4199 134.915 9.97894C134.834 9.53793 134.656 9.12021 134.394 8.75555C134.132 8.39088 133.792 8.08824 133.399 7.86919C133.006 7.65014 132.57 7.52006 132.12 7.48823C131.94 7.49373 131.76 7.45485 131.598 7.37504C130.79 6.88234 130.043 6.29555 129.374 5.62705C130.49 5.67796 129.125 -1.12631 118.055 0.162445C115.268 0.060629 113.812 3.12078 111.068 3.60446C104.415 -0.180151 98.4768 5.27917 95.5874 10.4976C92.6979 15.7162 89.5699 32.5342 102.355 38.474Z" fill="#2F2E41"/>
<path d="M186.204 10.4084H362.356C365.708 10.4112 368.921 11.7373 371.291 14.0958C373.662 16.4543 374.995 19.6525 375 22.9888V181.01C374.996 184.347 373.662 187.546 371.292 189.906C368.922 192.265 365.708 193.593 362.356 193.597H186.204C182.853 193.593 179.641 192.265 177.271 189.905C174.902 187.545 173.57 184.346 173.568 181.01V22.9888C173.571 19.6532 174.903 16.4551 177.272 14.0965C179.641 11.7379 182.854 10.4115 186.204 10.4084Z" fill="white"/>
<path d="M266.691 46.6769H285.51C286.434 46.6769 287.32 46.3114 287.974 45.6607C288.627 45.0101 288.995 44.1276 288.995 43.2074C288.995 42.2873 288.627 41.4048 287.974 40.7541C287.32 40.1035 286.434 39.7379 285.51 39.7379H266.691C265.766 39.7379 264.88 40.1035 264.226 40.7541C263.573 41.4048 263.206 42.2873 263.206 43.2074C263.206 44.1276 263.573 45.0101 264.226 45.6607C264.88 46.3114 265.766 46.6769 266.691 46.6769Z" fill="#1178B2"/>
<path d="M17.1654 206.088H35.9844C36.9086 206.088 37.7951 205.722 38.4486 205.071C39.1022 204.421 39.4694 203.538 39.4694 202.618C39.4694 201.698 39.1022 200.815 38.4486 200.165C37.7951 199.514 36.9086 199.149 35.9844 199.149H17.1654C16.2412 199.149 15.3547 199.514 14.7011 200.165C14.0476 200.815 13.6805 201.698 13.6805 202.618C13.6805 203.538 14.0476 204.421 14.7011 205.071C15.3547 205.722 16.2412 206.088 17.1654 206.088Z" fill="#1178B2"/>
<path d="M217.901 119.35H334.299C335.224 119.35 336.11 118.985 336.764 118.334C337.417 117.684 337.784 116.801 337.784 115.881C337.784 114.961 337.417 114.078 336.764 113.428C336.11 112.777 335.224 112.411 334.299 112.411H217.901C216.977 112.411 216.09 112.777 215.437 113.428C214.783 114.078 214.416 114.961 214.416 115.881C214.416 116.801 214.783 117.684 215.437 118.334C216.09 118.985 216.977 119.35 217.901 119.35Z" fill="#E6E6E6"/>
<path d="M217.901 142.249H334.299C335.224 142.249 336.11 141.883 336.764 141.233C337.417 140.582 337.784 139.7 337.784 138.78C337.784 137.859 337.417 136.977 336.764 136.326C336.11 135.676 335.224 135.31 334.299 135.31H217.901C216.977 135.31 216.09 135.676 215.437 136.326C214.783 136.977 214.416 137.859 214.416 138.78C214.416 139.7 214.783 140.582 215.437 141.233C216.09 141.883 216.977 142.249 217.901 142.249Z" fill="#E6E6E6"/>
<path d="M217.901 165.148H334.299C335.224 165.148 336.11 164.782 336.764 164.131C337.417 163.481 337.784 162.598 337.784 161.678C337.784 160.758 337.417 159.875 336.764 159.225C336.11 158.574 335.224 158.209 334.299 158.209H217.901C216.977 158.209 216.09 158.574 215.437 159.225C214.783 159.875 214.416 160.758 214.416 161.678C214.416 162.598 214.783 163.481 215.437 164.131C216.09 164.782 216.977 165.148 217.901 165.148Z" fill="#E6E6E6"/>
<path d="M241.692 57.0869H310.507C313.858 57.0897 317.071 58.4158 319.442 60.7743C321.812 63.1327 323.146 66.3309 323.15 69.6672V90.2968C323.146 93.6339 321.812 96.833 319.442 99.1926C317.072 101.552 313.859 102.88 310.507 102.884H241.692C238.341 102.88 235.128 101.552 232.759 99.1919C230.39 96.8321 229.058 93.6331 229.056 90.2968V69.6672C229.059 66.3317 230.391 63.1336 232.76 60.775C235.129 58.4163 238.342 57.0899 241.692 57.0869ZM230.45 90.2968C230.45 93.2671 231.635 96.1157 233.744 98.2161C235.854 100.316 238.716 101.496 241.699 101.496H291.097C299.229 101.496 307.027 98.2806 312.776 92.5565C318.526 86.8324 321.756 79.0688 321.756 70.9737V69.6672C321.752 66.699 320.565 63.8539 318.456 61.7557C316.347 59.6575 313.488 58.4776 310.507 58.4747H241.692C238.711 58.4778 235.854 59.6581 233.746 61.7564C231.638 63.8547 230.453 66.6998 230.45 69.6672V90.2968Z" fill="#E6E6E6"/>
<path d="M275.329 87.4311C268.785 87.4311 263.48 82.1497 263.48 75.6348C263.48 69.1199 268.785 63.8385 275.329 63.8385C281.873 63.8385 287.178 69.1199 287.178 75.6348C287.178 82.1497 281.873 87.4311 275.329 87.4311Z" fill="#E6E6E6"/>
<path d="M248.07 102.884L301.118 102.697L284.39 98.5334L282.306 91.6847L266.268 91.5945L261.466 98.3669L249.338 101.496L248.237 101.781L248.07 102.884Z" fill="#E6E6E6"/>
<path d="M282.063 83.1664C279.521 81.1878 282.996 72.4836 278.798 74.3415C278.798 74.3415 273.666 71.0902 272.634 73.2268C271.441 75.7007 267.195 74.5784 264.587 73.7052C264.792 73.2309 264.937 72.7332 265.02 72.2235C264.539 72.6012 264.029 72.9412 263.495 73.2407C263.137 73.0502 262.82 72.7914 262.562 72.479C262.307 72.1889 262.148 71.8283 262.106 71.4455C262.063 71.0628 262.139 70.6762 262.324 70.3378C262.758 69.6736 263.653 69.4692 264.181 68.8794C264.242 68.7964 264.281 68.7 264.297 68.5983C264.312 68.4967 264.302 68.3929 264.268 68.2959C264.205 68.0585 264.196 67.8103 264.24 67.5689C264.285 67.3275 264.382 67.0989 264.526 66.8993C264.669 66.6997 264.855 66.534 265.07 66.4141C265.285 66.2942 265.525 66.223 265.77 66.2056C265.869 66.2086 265.967 66.1873 266.056 66.1436C266.499 65.8739 266.908 65.5527 267.274 65.1868C266.663 65.2147 267.41 61.4902 273.47 62.1956C274.995 62.1399 275.792 63.8149 277.294 64.0797C280.936 62.0081 284.186 64.9964 285.768 67.8529C287.349 70.7093 289.062 79.9151 282.063 83.1664Z" fill="#E6E6E6"/>
<path d="M186.204 10.4084H362.356C365.708 10.4112 368.921 11.7373 371.291 14.0958C373.662 16.4543 374.995 19.6525 375 22.9888V181.01C374.996 184.347 373.662 187.546 371.292 189.906C368.922 192.265 365.708 193.593 362.356 193.597H186.204C182.853 193.593 179.641 192.265 177.271 189.905C174.902 187.545 173.57 184.346 173.568 181.01V22.9888C173.571 19.6532 174.903 16.4551 177.272 14.0965C179.641 11.7379 182.854 10.4115 186.204 10.4084ZM174.962 181.01C174.962 183.98 176.147 186.829 178.257 188.929C180.366 191.03 183.228 192.21 186.211 192.21H282.856C294.774 192.21 306.574 189.873 317.585 185.332C328.595 180.792 338.599 174.137 347.026 165.748C355.453 157.358 362.138 147.399 366.698 136.438C371.259 125.476 373.606 113.728 373.606 101.864V22.9888C373.601 20.0206 372.414 17.1754 370.305 15.0772C368.197 12.979 365.338 11.7991 362.356 11.7962H186.204C183.223 11.7994 180.366 12.9796 178.258 15.078C176.15 17.1763 174.965 20.0213 174.962 22.9888V181.01Z" fill="#E6E6E6"/>
<path d="M2.17094 360.787L221.974 361C222.194 360.999 222.404 360.911 222.559 360.757C222.713 360.602 222.8 360.392 222.8 360.174C222.8 359.955 222.713 359.746 222.559 359.591C222.404 359.436 222.194 359.349 221.974 359.348L2.17094 359.134C1.95155 359.135 1.74155 359.223 1.58681 359.378C1.43207 359.533 1.34521 359.742 1.34521 359.961C1.34521 360.179 1.43207 360.388 1.58681 360.543C1.74155 360.698 1.95155 360.786 2.17094 360.787Z" fill="#CACACA"/>
</g>
<defs>
<clipPath id="clip0_15_25">
<rect width="375" height="361" fill="white" transform="matrix(-1 0 0 1 375 0)"/>
</clipPath>
</defs>
</svg>
